<?xml version="1.0" encoding="utf-8"?>
<!-- Generator: Adobe Illustrator 23.0.3, SVG Export Plug-In . SVG Version: 6.00 Build 0)  -->
<svg version="1.1" xmlns="http://www.w3.org/2000/svg" xmlns:xlink="http://www.w3.org/1999/xlink" x="0px" y="0px"
	 viewBox="0 0 500 500" style="enable-background:new 0 0 500 500;" xml:space="preserve">
<g id="Birds">
	<g>
		<path style="fill:#263238;" d="M354.97,163.89c0,0,6.21,2.6,8.48,9.13c0,0-0.68-10.27,4.09-14.36c0,0-4.31,3.41-5.22,8.4
			C362.31,167.06,359.89,164.58,354.97,163.89z"/>
		<path style="fill:#263238;" d="M333.83,138.12c0,0,7.9,6.14,10.06,11.8c0,0,1.21-6.08,6.93-7.89c0,0-4.13-0.32-6.93,3.52
			C343.89,145.55,340.89,140.6,333.83,138.12z"/>
		<path style="fill:#263238;" d="M325.39,164.83c0,0,6.48-1.03,9.57,2.94c0,0-1.91-5.89,0-9.86c0,0-2.55,1.64-1.67,7.55
			C333.29,165.46,330.83,162.92,325.39,164.83z"/>
	</g>
</g>
<g id="Background_Complete">
	<g>
		<g style="display:none;">
			<rect y="382.4" style="display:inline;fill:#EBEBEB;" width="500" height="0.25"/>
			<rect x="104.54" y="389.21" style="display:inline;fill:#EBEBEB;" width="33.12" height="0.25"/>
			<rect x="171.14" y="398.37" style="display:inline;fill:#EBEBEB;" width="40.75" height="0.25"/>
			<rect x="52.46" y="395.24" style="display:inline;fill:#EBEBEB;" width="51.08" height="0.25"/>
			<rect x="356.76" y="390.89" style="display:inline;fill:#EBEBEB;" width="93.14" height="0.25"/>
			<rect x="277.21" y="395.11" style="display:inline;fill:#EBEBEB;" width="42.23" height="0.25"/>
			<path style="display:inline;fill:#EBEBEB;" d="M237,337.8H43.91c-3.15-0.01-5.7-2.56-5.7-5.71V60.66
				c0.03-3.13,2.57-5.65,5.7-5.66H237c3.15,0,5.71,2.56,5.71,5.71l0,0v271.38C242.71,335.24,240.15,337.8,237,337.8z M43.91,55.2
				c-3.01,0.01-5.45,2.45-5.45,5.46v271.43c0,3.01,2.44,5.45,5.45,5.46H237c3.01-0.01,5.45-2.45,5.46-5.46V60.66
				c-0.01-3.01-2.45-5.45-5.46-5.46H43.91z"/>
			<path style="display:inline;fill:#EBEBEB;" d="M453.31,337.8h-193.1c-3.15-0.01-5.7-2.56-5.71-5.71V60.66
				c0.03-3.13,2.58-5.65,5.71-5.66h193.1c3.13,0.01,5.66,2.53,5.69,5.66v271.43C459,335.24,456.46,337.79,453.31,337.8z
				 M260.21,55.2c-3.01,0.01-5.45,2.45-5.46,5.46v271.43c0.01,3.01,2.45,5.45,5.46,5.46h193.1c3.01-0.01,5.45-2.45,5.46-5.46V60.66
				c-0.01-3.01-2.45-5.45-5.46-5.46H260.21z"/>
		</g>
		<path style="fill:#FAFAFA;" d="M214.72,108.25h80.05c0,0-4.85-7.62-13.17-3.81c0,0-1.56-7.97-6.93-8.14
			c-5.37-0.17-7.28,3.99-7.28,3.99s-6.24-9.7-15.77-7.62c-9.53,2.08-10.4,10.92-10.4,10.92S227.03,96.3,214.72,108.25z"/>
		<path style="fill:#FAFAFA;" d="M68.4,219.71h80.05c0,0-4.85-7.62-13.17-3.81c0,0-1.56-7.97-6.93-8.14
			c-5.37-0.17-7.28,3.99-7.28,3.99s-6.24-9.7-15.77-7.62c-9.53,2.08-10.4,10.92-10.4,10.92S80.7,207.75,68.4,219.71z"/>
		<path style="fill:#FAFAFA;" d="M372.55,165.81h80.05c0,0-4.85-7.62-13.17-3.81c0,0-1.56-7.97-6.93-8.14
			c-5.37-0.17-7.28,3.99-7.28,3.99s-6.24-9.7-15.77-7.62c-9.53,2.08-10.4,10.92-10.4,10.92S384.85,153.86,372.55,165.81z"/>
		
			<ellipse transform="matrix(0.2306 -0.9731 0.9731 0.2306 163.5579 439.5626)" style="fill:#F0F0F0;" cx="359.72" cy="116.36" rx="8.11" ry="8.11"/>
		<path style="fill:#FAFAFA;" d="M60.75,165.81h80.05c0,0-4.85-7.62-13.17-3.81c0,0-1.56-7.97-6.93-8.14
			c-5.37-0.17-7.28,3.99-7.28,3.99s-6.24-9.7-15.77-7.62c-9.53,2.08-10.4,10.92-10.4,10.92S73.05,153.86,60.75,165.81z"/>
	</g>
</g>
<g id="Background_Simple" style="display:none;">
	<g style="display:inline;">
		<path style="fill:#407BFF;" d="M409.9,111.05c-19.18-22.65-47.59-36.14-83.81-31.12c-31.23,4.32-59.61,20.76-84.1,40.62
			c-10.43,8.46-20.39,17.63-31.88,24.58c-27.35,16.52-60.6,18.94-91.46,27.24c-32.3,8.69-55.38,34.35-62.3,67.02
			c-9.89,46.65,17.53,91.97,59.14,112.18c16.01,7.78,33.4,12.44,50.96,15.36c55.53,9.23,114.2,0.85,163.91-25.57
			c34.4-18.28,66.14-45.22,87.84-77.72C448.68,217.97,443.36,150.57,409.9,111.05z"/>
		<path style="opacity:0.9;fill:#FFFFFF;" d="M409.9,111.05c-19.18-22.65-47.59-36.14-83.81-31.12
			c-31.23,4.32-59.61,20.76-84.1,40.62c-10.43,8.46-20.39,17.63-31.88,24.58c-27.35,16.52-60.6,18.94-91.46,27.24
			c-32.3,8.69-55.38,34.35-62.3,67.02c-9.89,46.65,17.53,91.97,59.14,112.18c16.01,7.78,33.4,12.44,50.96,15.36
			c55.53,9.23,114.2,0.85,163.91-25.57c34.4-18.28,66.14-45.22,87.84-77.72C448.68,217.97,443.36,150.57,409.9,111.05z"/>
	</g>
</g>
<g id="Buildings_2">
	<g>
		<g>
			<rect x="119.4" y="190.07" style="fill:#E6E6E6;" width="84.88" height="165.65"/>
			<rect x="119.4" y="190.07" style="fill:#F0F0F0;" width="69.45" height="165.65"/>
			<rect x="117.57" y="190.07" style="fill:#E0E0E0;" width="87.71" height="2.7"/>
			<rect x="117.57" y="184.66" style="fill:#E0E0E0;" width="87.71" height="2.7"/>
			<rect x="119.4" y="187.36" style="fill:#F0F0F0;" width="84.04" height="2.7"/>
			<g>
				<rect x="125.99" y="199.82" style="fill:#E6E6E6;" width="13.04" height="13.04"/>
				<rect x="127.14" y="199.82" style="fill:#F5F5F5;" width="11.89" height="13.04"/>
			</g>
			<g>
				<rect x="145.75" y="199.82" style="fill:#E6E6E6;" width="13.04" height="13.04"/>
				<rect x="146.9" y="199.82" style="fill:#F5F5F5;" width="11.89" height="13.04"/>
			</g>
			<g>
				<rect x="165.5" y="199.82" style="fill:#E6E6E6;" width="13.04" height="13.04"/>
				<rect x="166.65" y="199.82" style="fill:#F5F5F5;" width="11.89" height="13.04"/>
			</g>
			<g>
				<rect x="125.99" y="219.03" style="fill:#E6E6E6;" width="13.04" height="13.04"/>
				<rect x="127.14" y="219.03" style="fill:#F5F5F5;" width="11.89" height="13.04"/>
			</g>
			<g>
				<rect x="145.75" y="219.03" style="fill:#E6E6E6;" width="13.04" height="13.04"/>
				<rect x="146.9" y="219.03" style="fill:#F5F5F5;" width="11.89" height="13.04"/>
			</g>
			<g>
				<rect x="165.5" y="219.03" style="fill:#E6E6E6;" width="13.04" height="13.04"/>
				<rect x="166.65" y="219.03" style="fill:#F5F5F5;" width="11.89" height="13.04"/>
			</g>
			<g>
				<rect x="125.99" y="254.2" style="fill:#E6E6E6;" width="13.04" height="13.04"/>
				<rect x="127.14" y="254.2" style="fill:#F5F5F5;" width="11.89" height="13.04"/>
			</g>
			<g>
				<rect x="145.75" y="254.2" style="fill:#E6E6E6;" width="13.04" height="13.04"/>
				<rect x="146.9" y="254.2" style="fill:#F5F5F5;" width="11.89" height="13.04"/>
			</g>
			<g>
				<rect x="165.5" y="254.2" style="fill:#E6E6E6;" width="13.04" height="13.04"/>
				<rect x="166.65" y="254.2" style="fill:#F5F5F5;" width="11.89" height="13.04"/>
			</g>
			<g>
				<rect x="125.99" y="273.41" style="fill:#E6E6E6;" width="13.04" height="13.04"/>
				<rect x="127.14" y="273.41" style="fill:#F5F5F5;" width="11.89" height="13.04"/>
			</g>
			<g>
				<rect x="145.75" y="273.41" style="fill:#E6E6E6;" width="13.04" height="13.04"/>
				<rect x="146.9" y="273.41" style="fill:#F5F5F5;" width="11.89" height="13.04"/>
			</g>
			<g>
				<rect x="165.5" y="273.41" style="fill:#E6E6E6;" width="13.04" height="13.04"/>
				<rect x="166.65" y="273.41" style="fill:#F5F5F5;" width="11.89" height="13.04"/>
			</g>
			<g>
				<rect x="125.99" y="312.5" style="fill:#E6E6E6;" width="13.04" height="13.04"/>
				<rect x="127.14" y="312.5" style="fill:#F5F5F5;" width="11.89" height="13.04"/>
			</g>
			<g>
				<rect x="145.75" y="312.5" style="fill:#E6E6E6;" width="13.04" height="13.04"/>
				<rect x="146.9" y="312.5" style="fill:#F5F5F5;" width="11.89" height="13.04"/>
			</g>
			<g>
				<rect x="165.5" y="312.5" style="fill:#E6E6E6;" width="13.04" height="13.04"/>
				<rect x="166.65" y="312.5" style="fill:#F5F5F5;" width="11.89" height="13.04"/>
			</g>
			<g>
				<rect x="125.99" y="331.71" style="fill:#E6E6E6;" width="13.04" height="13.04"/>
				<rect x="127.14" y="331.71" style="fill:#F5F5F5;" width="11.89" height="13.04"/>
			</g>
			<g>
				<rect x="145.75" y="331.71" style="fill:#E6E6E6;" width="13.04" height="13.04"/>
				<rect x="146.9" y="331.71" style="fill:#F5F5F5;" width="11.89" height="13.04"/>
			</g>
			<g>
				<rect x="165.5" y="331.71" style="fill:#E6E6E6;" width="13.04" height="13.04"/>
				<rect x="166.65" y="331.71" style="fill:#F5F5F5;" width="11.89" height="13.04"/>
			</g>
			<rect x="119.4" y="241.24" style="fill:#E0E0E0;" width="84.88" height="1.21"/>
			<rect x="119.4" y="301.37" style="fill:#E0E0E0;" width="84.88" height="1.21"/>
		</g>
		<g>
			<rect x="46.36" y="239.67" style="fill:#E0E0E0;" width="58.71" height="142.86"/>
			<rect x="46.36" y="239.67" style="fill:#F0F0F0;" width="41.99" height="142.86"/>
			<g>
				<rect x="50.68" y="251.41" style="fill:#E6E6E6;" width="15.63" height="7.59"/>
				<rect x="51.72" y="251.41" style="fill:#F5F5F5;" width="14.59" height="7.59"/>
			</g>
			<g>
				<rect x="68.76" y="251.41" style="fill:#E6E6E6;" width="15.63" height="7.59"/>
				<rect x="69.8" y="251.41" style="fill:#F5F5F5;" width="14.58" height="7.59"/>
			</g>
			<g>
				<rect x="50.68" y="265.69" style="fill:#E6E6E6;" width="15.63" height="7.59"/>
				<rect x="51.72" y="265.69" style="fill:#F5F5F5;" width="14.59" height="7.59"/>
			</g>
			<g>
				<rect x="68.76" y="265.69" style="fill:#E6E6E6;" width="15.63" height="7.59"/>
				<rect x="69.8" y="265.69" style="fill:#F5F5F5;" width="14.58" height="7.59"/>
			</g>
			<g>
				<rect x="50.68" y="283.94" style="fill:#E6E6E6;" width="15.63" height="7.59"/>
				<rect x="51.72" y="283.94" style="fill:#F5F5F5;" width="14.59" height="7.59"/>
			</g>
			<g>
				<rect x="68.76" y="283.94" style="fill:#E6E6E6;" width="15.63" height="7.59"/>
				<rect x="69.8" y="283.94" style="fill:#F5F5F5;" width="14.58" height="7.59"/>
			</g>
			<g>
				<rect x="50.68" y="294.42" style="fill:#E6E6E6;" width="15.63" height="7.59"/>
				<rect x="51.72" y="294.42" style="fill:#F5F5F5;" width="14.59" height="7.59"/>
			</g>
			<g>
				<rect x="68.76" y="294.42" style="fill:#E6E6E6;" width="15.63" height="7.59"/>
				<rect x="69.8" y="294.42" style="fill:#F5F5F5;" width="14.58" height="7.59"/>
			</g>
			<g>
				<rect x="50.68" y="311.65" style="fill:#E6E6E6;" width="15.63" height="7.59"/>
				<rect x="51.72" y="311.65" style="fill:#F5F5F5;" width="14.59" height="7.59"/>
			</g>
			<g>
				<rect x="68.76" y="311.65" style="fill:#E6E6E6;" width="15.63" height="7.59"/>
				<rect x="69.8" y="311.65" style="fill:#F5F5F5;" width="14.58" height="7.59"/>
			</g>
			<g>
				<rect x="50.68" y="322.13" style="fill:#E6E6E6;" width="15.63" height="7.59"/>
				<rect x="51.72" y="322.13" style="fill:#F5F5F5;" width="14.59" height="7.59"/>
			</g>
			<g>
				<rect x="68.76" y="322.13" style="fill:#E6E6E6;" width="15.63" height="7.59"/>
				<rect x="69.8" y="322.13" style="fill:#F5F5F5;" width="14.58" height="7.59"/>
			</g>
			<g>
				<rect x="50.68" y="340.88" style="fill:#E6E6E6;" width="15.63" height="7.59"/>
				<rect x="51.72" y="340.88" style="fill:#F5F5F5;" width="14.59" height="7.59"/>
			</g>
			<g>
				<rect x="68.76" y="340.88" style="fill:#E6E6E6;" width="15.63" height="7.59"/>
				<rect x="69.8" y="340.88" style="fill:#F5F5F5;" width="14.58" height="7.59"/>
			</g>
			<g>
				<rect x="50.68" y="354.72" style="fill:#E6E6E6;" width="15.63" height="7.59"/>
				<rect x="51.72" y="354.72" style="fill:#F5F5F5;" width="14.59" height="7.59"/>
			</g>
			<g>
				<rect x="68.76" y="354.72" style="fill:#E6E6E6;" width="15.63" height="7.59"/>
				<rect x="69.8" y="354.72" style="fill:#F5F5F5;" width="14.58" height="7.59"/>
			</g>
			<rect x="46.36" y="277.95" style="opacity:0.05;" width="58.71" height="1.3"/>
			<rect x="46.36" y="306.17" style="opacity:0.05;" width="58.71" height="1.3"/>
			<rect x="46.36" y="334.64" style="opacity:0.05;" width="58.71" height="1.3"/>
			<rect x="43.59" y="235.44" style="fill:#E0E0E0;" width="61.47" height="4.56"/>
			<rect x="91.02" y="235.44" style="opacity:0.05;" width="14.05" height="4.56"/>
		</g>
		<g>
			<rect x="239.36" y="165.26" style="fill:#E6E6E6;" width="68.94" height="179.17"/>
			<rect x="213.84" y="165.26" style="fill:#F0F0F0;" width="68.94" height="179.17"/>
			<g>
				<rect x="219.86" y="177.42" style="fill:#E6E6E6;" width="56.91" height="9.13"/>
				<rect x="222.06" y="177.42" style="fill:#F5F5F5;" width="54.7" height="9.13"/>
			</g>
			<g>
				<rect x="219.86" y="192.79" style="fill:#E6E6E6;" width="56.91" height="9.13"/>
				<rect x="222.06" y="192.79" style="fill:#F5F5F5;" width="54.7" height="9.13"/>
			</g>
			<g>
				<rect x="219.86" y="208.75" style="fill:#E6E6E6;" width="56.91" height="9.13"/>
				<rect x="222.06" y="208.75" style="fill:#F5F5F5;" width="54.7" height="9.13"/>
			</g>
			<g>
				<rect x="219.86" y="224.72" style="fill:#E6E6E6;" width="56.91" height="9.13"/>
				<rect x="222.06" y="224.72" style="fill:#F5F5F5;" width="54.7" height="9.13"/>
			</g>
			<g>
				<rect x="219.86" y="240.68" style="fill:#E6E6E6;" width="56.91" height="9.13"/>
				<rect x="222.06" y="240.68" style="fill:#F5F5F5;" width="54.7" height="9.13"/>
			</g>
			<g>
				<rect x="219.86" y="256.65" style="fill:#E6E6E6;" width="56.91" height="9.13"/>
				<rect x="222.06" y="256.65" style="fill:#F5F5F5;" width="54.7" height="9.13"/>
			</g>
			<g>
				<rect x="219.86" y="274.24" style="fill:#E6E6E6;" width="56.91" height="9.13"/>
				<rect x="222.06" y="274.24" style="fill:#F5F5F5;" width="54.7" height="9.13"/>
			</g>
			<g>
				<rect x="219.86" y="291.84" style="fill:#E6E6E6;" width="56.91" height="9.13"/>
				<rect x="222.06" y="291.84" style="fill:#F5F5F5;" width="54.7" height="9.13"/>
			</g>
			<g>
				<rect x="219.86" y="309.44" style="fill:#E6E6E6;" width="56.91" height="9.13"/>
				<rect x="222.06" y="309.44" style="fill:#F5F5F5;" width="54.7" height="9.13"/>
			</g>
			<g>
				<rect x="219.86" y="327.03" style="fill:#E6E6E6;" width="56.91" height="9.13"/>
				<rect x="222.06" y="327.03" style="fill:#F5F5F5;" width="54.7" height="9.13"/>
			</g>
			<rect x="211.89" y="163.46" style="fill:#E0E0E0;" width="98.2" height="4.37"/>
			<rect x="211.89" y="155.57" style="fill:#E0E0E0;" width="98.2" height="4.37"/>
			<rect x="213.84" y="159.08" style="fill:#F0F0F0;" width="92.99" height="4.37"/>
			<rect x="289.09" y="177.42" style="fill:#E0E0E0;" width="19.21" height="9.13"/>
			<rect x="289.09" y="192.44" style="fill:#E0E0E0;" width="19.21" height="9.13"/>
			<rect x="289.09" y="207.47" style="fill:#E0E0E0;" width="19.21" height="9.13"/>
			<rect x="289.09" y="224.71" style="fill:#E0E0E0;" width="19.21" height="9.13"/>
			<rect x="289.09" y="240.68" style="fill:#E0E0E0;" width="19.21" height="9.13"/>
			<rect x="289.09" y="256.65" style="fill:#E0E0E0;" width="19.21" height="9.13"/>
			<rect x="289.09" y="274.24" style="fill:#E0E0E0;" width="19.21" height="9.13"/>
			<rect x="289.09" y="291.84" style="fill:#E0E0E0;" width="19.21" height="9.13"/>
			<rect x="289.09" y="309.43" style="fill:#E0E0E0;" width="19.21" height="9.13"/>
			<rect x="289.09" y="327.03" style="fill:#E0E0E0;" width="19.21" height="9.13"/>
		</g>
		<g>
			<rect x="458.81" y="302.69" style="fill:#E0E0E0;" width="5.53" height="8.65"/>
			<rect x="458.81" y="316.85" style="fill:#E0E0E0;" width="5.53" height="8.65"/>
			<rect x="458.81" y="330.6" style="fill:#E0E0E0;" width="5.53" height="8.65"/>
			<rect x="458.81" y="345.15" style="fill:#E0E0E0;" width="5.53" height="8.65"/>
			<rect x="458.81" y="359.3" style="fill:#E0E0E0;" width="5.53" height="8.65"/>
			<rect x="406.17" y="294" style="fill:#E6E6E6;" width="58.17" height="88.47"/>
			<rect x="406.18" y="294" style="fill:#F0F0F0;" width="48.34" height="88.47"/>
			<rect x="410.53" y="302.69" style="fill:#EBEBEB;" width="39.31" height="8.65"/>
			<rect x="410.53" y="316.85" style="fill:#EBEBEB;" width="39.31" height="8.65"/>
			<rect x="410.53" y="331" style="fill:#EBEBEB;" width="39.31" height="8.65"/>
			<rect x="410.53" y="345.15" style="fill:#EBEBEB;" width="39.31" height="8.65"/>
			<rect x="410.53" y="359.3" style="fill:#EBEBEB;" width="39.31" height="8.65"/>
			<g>
				<rect x="411.97" y="302.69" style="fill:#F5F5F5;" width="37.86" height="8.65"/>
				<rect x="411.97" y="316.85" style="fill:#F5F5F5;" width="37.86" height="8.65"/>
				<rect x="411.97" y="331" style="fill:#F5F5F5;" width="37.86" height="8.65"/>
				<rect x="411.97" y="345.15" style="fill:#F5F5F5;" width="37.86" height="8.65"/>
				<rect x="411.97" y="359.3" style="fill:#F5F5F5;" width="37.86" height="8.65"/>
			</g>
		</g>
	</g>
</g>
<g id="Buildings_1">
	<g>
		<rect x="119.27" y="219.52" style="fill:#407BFF;" width="99.03" height="193.26"/>
		<rect x="119.27" y="219.52" style="opacity:0.4;fill:#FFFFFF;" width="81.03" height="193.26"/>
		<rect x="117.14" y="219.52" style="fill:#407BFF;" width="102.33" height="3.15"/>
		<rect x="117.14" y="213.21" style="fill:#407BFF;" width="102.33" height="3.16"/>
		<rect x="119.27" y="216.37" style="fill:#F0F0F0;" width="98.05" height="3.15"/>
		<g>
			<rect x="126.96" y="230.9" style="fill:#407BFF;" width="15.22" height="15.22"/>
			<rect x="128.3" y="230.9" style="opacity:0.2;fill:#FFFFFF;" width="13.88" height="15.22"/>
		</g>
		<g>
			<rect x="150.01" y="230.9" style="fill:#407BFF;" width="15.22" height="15.22"/>
			<rect x="151.35" y="230.9" style="opacity:0.2;fill:#FFFFFF;" width="13.88" height="15.22"/>
		</g>
		<g>
			<rect x="173.05" y="230.9" style="fill:#407BFF;" width="15.22" height="15.22"/>
			<rect x="174.39" y="230.9" style="opacity:0.2;fill:#FFFFFF;" width="13.88" height="15.22"/>
		</g>
		<g>
			<rect x="126.96" y="253.31" style="fill:#407BFF;" width="15.22" height="15.22"/>
			<rect x="128.3" y="253.31" style="opacity:0.2;fill:#FFFFFF;" width="13.88" height="15.22"/>
		</g>
		<g>
			<rect x="150.01" y="253.31" style="fill:#407BFF;" width="15.22" height="15.22"/>
			<rect x="151.35" y="253.31" style="opacity:0.2;fill:#FFFFFF;" width="13.88" height="15.22"/>
		</g>
		<g>
			<rect x="173.05" y="253.31" style="fill:#407BFF;" width="15.22" height="15.22"/>
			<rect x="174.39" y="253.31" style="opacity:0.2;fill:#FFFFFF;" width="13.88" height="15.22"/>
		</g>
		<g>
			<rect x="126.96" y="294.35" style="fill:#407BFF;" width="15.22" height="15.22"/>
			<rect x="128.3" y="294.35" style="opacity:0.2;fill:#FFFFFF;" width="13.88" height="15.22"/>
		</g>
		<g>
			<rect x="150.01" y="294.35" style="fill:#407BFF;" width="15.22" height="15.22"/>
			<rect x="151.35" y="294.35" style="opacity:0.2;fill:#FFFFFF;" width="13.88" height="15.22"/>
		</g>
		<g>
			<rect x="173.05" y="294.35" style="fill:#407BFF;" width="15.22" height="15.22"/>
			<rect x="174.39" y="294.35" style="opacity:0.2;fill:#FFFFFF;" width="13.88" height="15.22"/>
		</g>
		<g>
			<rect x="126.96" y="316.75" style="fill:#407BFF;" width="15.22" height="15.22"/>
			<rect x="128.3" y="316.75" style="opacity:0.2;fill:#FFFFFF;" width="13.88" height="15.22"/>
		</g>
		<g>
			<rect x="150.01" y="316.75" style="fill:#407BFF;" width="15.22" height="15.22"/>
			<rect x="151.35" y="316.75" style="opacity:0.2;fill:#FFFFFF;" width="13.88" height="15.22"/>
		</g>
		<g>
			<rect x="173.05" y="316.75" style="fill:#407BFF;" width="15.22" height="15.22"/>
			<rect x="174.39" y="316.75" style="opacity:0.2;fill:#FFFFFF;" width="13.88" height="15.22"/>
		</g>
		<g>
			<rect x="126.96" y="362.36" style="fill:#407BFF;" width="15.22" height="15.22"/>
			<rect x="128.3" y="362.36" style="opacity:0.2;fill:#FFFFFF;" width="13.88" height="15.22"/>
		</g>
		<g>
			<rect x="150.01" y="362.36" style="fill:#407BFF;" width="15.22" height="15.22"/>
			<rect x="151.35" y="362.36" style="opacity:0.2;fill:#FFFFFF;" width="13.88" height="15.22"/>
		</g>
		<g>
			<rect x="173.05" y="362.36" style="fill:#407BFF;" width="15.22" height="15.22"/>
			<rect x="174.39" y="362.36" style="opacity:0.2;fill:#FFFFFF;" width="13.88" height="15.22"/>
		</g>
		<g>
			<rect x="126.96" y="384.77" style="fill:#407BFF;" width="15.22" height="15.22"/>
			<rect x="128.3" y="384.77" style="opacity:0.2;fill:#FFFFFF;" width="13.88" height="15.22"/>
		</g>
		<g>
			<rect x="150.01" y="384.77" style="fill:#407BFF;" width="15.22" height="15.22"/>
			<rect x="151.35" y="384.77" style="opacity:0.2;fill:#FFFFFF;" width="13.88" height="15.22"/>
		</g>
		<g>
			<rect x="173.05" y="384.77" style="fill:#407BFF;" width="15.22" height="15.22"/>
			<rect x="174.39" y="384.77" style="opacity:0.2;fill:#FFFFFF;" width="13.88" height="15.22"/>
		</g>
		<rect x="119.27" y="279.23" style="opacity:0.2;fill:#FFFFFF;" width="99.03" height="1.41"/>
		<rect x="119.27" y="349.37" style="opacity:0.2;fill:#FFFFFF;" width="99.03" height="1.41"/>
		<rect x="286.16" y="246.12" style="fill:#407BFF;" width="68.49" height="166.66"/>
		<rect x="286.16" y="246.12" style="opacity:0.4;fill:#FFFFFF;" width="52.1" height="166.66"/>
		<g>
			<rect x="291.21" y="259.81" style="fill:#407BFF;" width="18.23" height="8.85"/>
			<rect x="292.42" y="259.81" style="opacity:0.2;fill:#FFFFFF;" width="17.02" height="8.85"/>
		</g>
		<g>
			<rect x="312.3" y="259.81" style="fill:#407BFF;" width="18.23" height="8.85"/>
			<rect x="313.51" y="259.81" style="opacity:0.2;fill:#FFFFFF;" width="17.02" height="8.85"/>
		</g>
		<g>
			<rect x="291.21" y="276.47" style="fill:#407BFF;" width="18.23" height="8.85"/>
			<rect x="292.42" y="276.47" style="opacity:0.2;fill:#FFFFFF;" width="17.02" height="8.85"/>
		</g>
		<g>
			<rect x="312.3" y="276.47" style="fill:#407BFF;" width="18.23" height="8.85"/>
			<rect x="313.51" y="276.47" style="opacity:0.2;fill:#FFFFFF;" width="17.02" height="8.85"/>
		</g>
		<g>
			<rect x="291.21" y="297.76" style="fill:#407BFF;" width="18.23" height="8.85"/>
			<rect x="292.42" y="297.76" style="opacity:0.2;fill:#FFFFFF;" width="17.02" height="8.85"/>
		</g>
		<g>
			<rect x="312.3" y="297.76" style="fill:#407BFF;" width="18.23" height="8.85"/>
			<rect x="313.51" y="297.76" style="opacity:0.2;fill:#FFFFFF;" width="17.02" height="8.85"/>
		</g>
		<g>
			<rect x="291.21" y="309.99" style="fill:#407BFF;" width="18.23" height="8.85"/>
			<rect x="292.42" y="309.99" style="opacity:0.2;fill:#FFFFFF;" width="17.02" height="8.85"/>
		</g>
		<g>
			<rect x="312.3" y="309.99" style="fill:#407BFF;" width="18.23" height="8.85"/>
			<rect x="313.51" y="309.99" style="opacity:0.2;fill:#FFFFFF;" width="17.02" height="8.85"/>
		</g>
		<g>
			<rect x="291.21" y="330.09" style="fill:#407BFF;" width="18.23" height="8.85"/>
			<rect x="292.42" y="330.09" style="opacity:0.2;fill:#FFFFFF;" width="17.02" height="8.85"/>
		</g>
		<g>
			<rect x="312.3" y="330.09" style="fill:#407BFF;" width="18.23" height="8.85"/>
			<rect x="313.51" y="330.09" style="opacity:0.2;fill:#FFFFFF;" width="17.02" height="8.85"/>
		</g>
		<g>
			<rect x="291.21" y="342.32" style="fill:#407BFF;" width="18.23" height="8.85"/>
			<rect x="292.42" y="342.32" style="opacity:0.2;fill:#FFFFFF;" width="17.02" height="8.85"/>
		</g>
		<g>
			<rect x="312.3" y="342.32" style="fill:#407BFF;" width="18.23" height="8.85"/>
			<rect x="313.51" y="342.32" style="opacity:0.2;fill:#FFFFFF;" width="17.02" height="8.85"/>
		</g>
		<g>
			<rect x="291.21" y="364.19" style="fill:#407BFF;" width="18.23" height="8.85"/>
			<rect x="292.42" y="364.19" style="opacity:0.2;fill:#FFFFFF;" width="17.02" height="8.85"/>
		</g>
		<g>
			<rect x="312.3" y="364.19" style="fill:#407BFF;" width="18.23" height="8.85"/>
			<rect x="313.51" y="364.19" style="opacity:0.2;fill:#FFFFFF;" width="17.02" height="8.85"/>
		</g>
		<g>
			<rect x="291.21" y="380.35" style="fill:#407BFF;" width="18.23" height="8.85"/>
			<rect x="292.42" y="380.35" style="opacity:0.2;fill:#FFFFFF;" width="17.02" height="8.85"/>
		</g>
		<g>
			<rect x="312.3" y="380.35" style="fill:#407BFF;" width="18.23" height="8.85"/>
			<rect x="313.51" y="380.35" style="opacity:0.2;fill:#FFFFFF;" width="17.02" height="8.85"/>
		</g>
		<rect x="282.94" y="241.19" style="fill:#407BFF;" width="71.72" height="5.32"/>
		<rect x="338.27" y="241.19" style="opacity:0.2;" width="16.39" height="5.32"/>
		<rect x="279.71" y="319.71" style="fill:#E0E0E0;" width="6.45" height="10.09"/>
		<rect x="279.71" y="336.22" style="fill:#E0E0E0;" width="6.45" height="10.09"/>
		<rect x="279.71" y="352.27" style="fill:#E0E0E0;" width="6.45" height="10.09"/>
		<rect x="279.71" y="369.24" style="fill:#E0E0E0;" width="6.45" height="10.09"/>
		<rect x="279.71" y="385.75" style="fill:#E0E0E0;" width="6.45" height="10.09"/>
		<rect x="218.3" y="309.57" style="fill:#407BFF;" width="67.86" height="103.21"/>
		<rect x="218.3" y="309.56" style="opacity:0.3;fill:#FFFFFF;" width="56.4" height="103.22"/>
		<rect x="223.37" y="319.71" style="fill:#407BFF;" width="45.86" height="10.09"/>
		<rect x="223.37" y="336.22" style="fill:#407BFF;" width="45.86" height="10.09"/>
		<rect x="223.37" y="352.73" style="fill:#407BFF;" width="45.86" height="10.09"/>
		<rect x="223.37" y="369.24" style="fill:#407BFF;" width="45.86" height="10.09"/>
		<rect x="223.37" y="385.75" style="fill:#407BFF;" width="45.86" height="10.09"/>
		<g style="opacity:0.1;">
			<rect x="225.06" y="319.71" style="fill:#FFFFFF;" width="44.17" height="10.09"/>
			<rect x="225.06" y="336.22" style="fill:#FFFFFF;" width="44.17" height="10.09"/>
			<rect x="225.06" y="352.73" style="fill:#FFFFFF;" width="44.17" height="10.09"/>
			<rect x="225.06" y="369.24" style="fill:#FFFFFF;" width="44.17" height="10.09"/>
			<rect x="225.06" y="385.75" style="fill:#FFFFFF;" width="44.17" height="10.09"/>
		</g>
		<polygon style="fill:#407BFF;" points="78.58,341.27 33.06,341.27 33.06,412.78 105.71,412.78 105.71,341.27 105.71,309.56 		"/>
		<rect x="105.71" y="309.56" style="fill:#407BFF;" width="13.56" height="103.22"/>
		<rect x="105.71" y="309.56" style="opacity:0.7;fill:#FFFFFF;" width="13.56" height="103.22"/>
		<rect x="200.29" y="222.67" style="opacity:0.7;fill:#FFFFFF;" width="18.01" height="190.11"/>
		<rect x="274.7" y="309.56" style="opacity:0.6;fill:#FFFFFF;" width="11.46" height="103.22"/>
		<rect x="338.27" y="246.51" style="opacity:0.7;fill:#FFFFFF;" width="16.39" height="166.27"/>
		<rect x="361.67" y="217.94" style="opacity:0.5;fill:#FFFFFF;" width="2.58" height="10.65"/>
		<rect x="361.67" y="235.86" style="opacity:0.5;fill:#FFFFFF;" width="2.58" height="10.65"/>
		<rect x="361.67" y="254.49" style="opacity:0.5;fill:#FFFFFF;" width="2.58" height="10.65"/>
		<rect x="361.67" y="273.12" style="opacity:0.5;fill:#FFFFFF;" width="2.58" height="10.65"/>
		<rect x="361.67" y="291.74" style="opacity:0.5;fill:#FFFFFF;" width="2.58" height="10.65"/>
		<rect x="361.67" y="310.37" style="opacity:0.5;fill:#FFFFFF;" width="2.58" height="10.65"/>
		<rect x="361.67" y="330.9" style="opacity:0.5;fill:#FFFFFF;" width="2.58" height="10.65"/>
		<rect x="361.67" y="351.43" style="opacity:0.5;fill:#FFFFFF;" width="2.58" height="10.65"/>
		<rect x="361.67" y="371.95" style="opacity:0.5;fill:#FFFFFF;" width="2.58" height="10.65"/>
		<rect x="361.67" y="392.48" style="opacity:0.5;fill:#FFFFFF;" width="2.58" height="10.65"/>
		<g>
			<rect x="384.43" y="203.75" style="fill:#407BFF;" width="80.43" height="209.03"/>
			<rect x="354.65" y="203.75" style="fill:#407BFF;" width="80.43" height="209.03"/>
			<rect x="435.09" y="206.75" style="opacity:0.7;fill:#FFFFFF;" width="29.77" height="206.03"/>
			<g>
				<rect x="442.45" y="217.94" style="fill:#407BFF;" width="22.41" height="10.65"/>
				<rect x="442.45" y="235.46" style="fill:#407BFF;" width="22.41" height="10.65"/>
				<rect x="442.45" y="252.99" style="fill:#407BFF;" width="22.41" height="10.65"/>
				<rect x="442.45" y="273.11" style="fill:#407BFF;" width="22.41" height="10.65"/>
				<rect x="442.45" y="291.74" style="fill:#407BFF;" width="22.41" height="10.65"/>
				<rect x="442.45" y="310.37" style="fill:#407BFF;" width="22.41" height="10.65"/>
				<rect x="442.45" y="330.89" style="fill:#407BFF;" width="22.41" height="10.65"/>
				<rect x="442.45" y="351.42" style="fill:#407BFF;" width="22.41" height="10.65"/>
				<rect x="442.45" y="371.95" style="fill:#407BFF;" width="22.41" height="10.65"/>
				<rect x="442.45" y="392.48" style="fill:#407BFF;" width="22.41" height="10.65"/>
				<rect x="442.45" y="217.94" style="opacity:0.3;fill:#FFFFFF;" width="22.41" height="10.65"/>
				<rect x="442.45" y="235.46" style="opacity:0.3;fill:#FFFFFF;" width="22.41" height="10.65"/>
				<rect x="442.45" y="252.99" style="opacity:0.3;fill:#FFFFFF;" width="22.41" height="10.65"/>
				<rect x="442.45" y="273.11" style="opacity:0.3;fill:#FFFFFF;" width="22.41" height="10.65"/>
				<rect x="442.45" y="291.74" style="opacity:0.3;fill:#FFFFFF;" width="22.41" height="10.65"/>
				<rect x="442.45" y="310.37" style="opacity:0.3;fill:#FFFFFF;" width="22.41" height="10.65"/>
				<rect x="442.45" y="330.89" style="opacity:0.3;fill:#FFFFFF;" width="22.41" height="10.65"/>
				<rect x="442.45" y="351.42" style="opacity:0.3;fill:#FFFFFF;" width="22.41" height="10.65"/>
				<rect x="442.45" y="371.95" style="opacity:0.3;fill:#FFFFFF;" width="22.41" height="10.65"/>
				<rect x="442.45" y="392.48" style="opacity:0.3;fill:#FFFFFF;" width="22.41" height="10.65"/>
			</g>
			<rect x="354.65" y="203.75" style="opacity:0.4;fill:#FFFFFF;" width="80.43" height="209.03"/>
			<g>
				<rect x="361.67" y="217.94" style="fill:#407BFF;" width="66.4" height="10.65"/>
				<rect x="364.25" y="217.94" style="opacity:0.2;fill:#FFFFFF;" width="63.82" height="10.65"/>
			</g>
			<g>
				<rect x="361.67" y="235.86" style="fill:#407BFF;" width="66.4" height="10.65"/>
				<rect x="364.25" y="235.86" style="opacity:0.2;fill:#FFFFFF;" width="63.82" height="10.65"/>
			</g>
			<g>
				<rect x="361.67" y="254.49" style="fill:#407BFF;" width="66.4" height="10.65"/>
				<rect x="364.25" y="254.49" style="opacity:0.2;fill:#FFFFFF;" width="63.82" height="10.65"/>
			</g>
			<g>
				<rect x="361.67" y="273.12" style="fill:#407BFF;" width="66.4" height="10.65"/>
				<rect x="364.25" y="273.12" style="opacity:0.2;fill:#FFFFFF;" width="63.82" height="10.65"/>
			</g>
			<g>
				<rect x="361.67" y="291.74" style="fill:#407BFF;" width="66.4" height="10.65"/>
				<rect x="364.25" y="291.74" style="opacity:0.2;fill:#FFFFFF;" width="63.82" height="10.65"/>
			</g>
			<g>
				<rect x="361.67" y="310.37" style="fill:#407BFF;" width="66.4" height="10.65"/>
				<rect x="364.25" y="310.37" style="opacity:0.2;fill:#FFFFFF;" width="63.82" height="10.65"/>
			</g>
			<g>
				<rect x="361.67" y="330.9" style="fill:#407BFF;" width="66.4" height="10.65"/>
				<rect x="364.25" y="330.9" style="opacity:0.2;fill:#FFFFFF;" width="63.82" height="10.65"/>
			</g>
			<g>
				<rect x="361.67" y="351.43" style="fill:#407BFF;" width="66.4" height="10.65"/>
				<rect x="364.25" y="351.43" style="opacity:0.2;fill:#FFFFFF;" width="63.82" height="10.65"/>
			</g>
			<g>
				<rect x="361.67" y="371.95" style="fill:#407BFF;" width="66.4" height="10.65"/>
				<rect x="364.25" y="371.95" style="opacity:0.2;fill:#FFFFFF;" width="63.82" height="10.65"/>
			</g>
			<g>
				<rect x="361.67" y="392.48" style="fill:#407BFF;" width="66.4" height="10.65"/>
				<rect x="364.25" y="392.48" style="opacity:0.2;fill:#FFFFFF;" width="63.82" height="10.65"/>
			</g>
			<rect x="435.09" y="197.54" style="fill:#407BFF;" width="28.05" height="4.1"/>
			<rect x="354.65" y="196.54" style="fill:#F0F0F0;" width="108.49" height="5.1"/>
			<g>
				<rect x="352.38" y="201.65" style="fill:#407BFF;" width="114.57" height="5.1"/>
				<rect x="352.38" y="192.44" style="fill:#407BFF;" width="114.57" height="5.1"/>
				<rect x="352.38" y="201.65" style="opacity:0.05;" width="114.57" height="5.1"/>
				<rect x="352.38" y="192.44" style="opacity:0.05;" width="114.57" height="5.1"/>
			</g>
		</g>
		<rect x="286.16" y="290.53" style="opacity:0.2;fill:#FFFFFF;" width="68.49" height="1.52"/>
		<rect x="286.16" y="323.46" style="opacity:0.2;fill:#FFFFFF;" width="68.49" height="1.52"/>
		<rect x="286.16" y="356.67" style="opacity:0.2;fill:#FFFFFF;" width="68.49" height="1.52"/>
		<rect x="200.29" y="219.52" style="opacity:0.2;" width="19.17" height="3.15"/>
		<rect x="200.29" y="213.21" style="opacity:0.2;" width="19.17" height="3.15"/>
		<rect x="435.09" y="201.65" style="opacity:0.2;" width="31.86" height="5.1"/>
		<rect x="435.09" y="192.44" style="opacity:0.2;" width="31.86" height="5.1"/>
		<polygon style="opacity:0.4;fill:#FFFFFF;" points="78.58,341.27 33.06,341.27 33.06,412.78 105.71,412.78 105.71,341.27 
			105.71,309.56 		"/>
		<g>
			<rect x="39.64" y="355.77" style="fill:#407BFF;" width="10.81" height="10.81"/>
			<rect x="61.64" y="355.77" style="fill:#407BFF;" width="10.81" height="10.81"/>
			<rect x="83.64" y="355.77" style="fill:#407BFF;" width="10.81" height="10.81"/>
			<rect x="39.64" y="373.96" style="fill:#407BFF;" width="10.81" height="10.81"/>
			<rect x="61.64" y="373.96" style="fill:#407BFF;" width="10.81" height="10.81"/>
			<rect x="83.64" y="373.96" style="fill:#407BFF;" width="10.81" height="10.81"/>
			<rect x="39.64" y="392.15" style="fill:#407BFF;" width="10.81" height="10.81"/>
			<rect x="61.64" y="392.15" style="fill:#407BFF;" width="10.81" height="10.81"/>
			<rect x="83.64" y="392.15" style="fill:#407BFF;" width="10.81" height="10.81"/>
			<g>
				<rect x="40.84" y="355.77" style="opacity:0.2;fill:#FFFFFF;" width="10.81" height="10.81"/>
				<rect x="62.83" y="355.77" style="opacity:0.2;fill:#FFFFFF;" width="10.81" height="10.81"/>
				<rect x="84.83" y="355.77" style="opacity:0.2;fill:#FFFFFF;" width="10.81" height="10.81"/>
				<rect x="40.84" y="373.96" style="opacity:0.2;fill:#FFFFFF;" width="10.81" height="10.81"/>
				<rect x="62.83" y="373.96" style="opacity:0.2;fill:#FFFFFF;" width="10.81" height="10.81"/>
				<rect x="84.83" y="373.96" style="opacity:0.2;fill:#FFFFFF;" width="10.81" height="10.81"/>
				<rect x="40.84" y="392.15" style="opacity:0.2;fill:#FFFFFF;" width="10.81" height="10.81"/>
				<rect x="62.83" y="392.15" style="opacity:0.2;fill:#FFFFFF;" width="10.81" height="10.81"/>
				<rect x="84.83" y="392.15" style="opacity:0.2;fill:#FFFFFF;" width="10.81" height="10.81"/>
			</g>
		</g>
	</g>
</g>
<g id="Street">
	<g>
		<g>
			<polygon style="fill:#407BFF;" points="244.1,421.07 237.84,452.83 258.85,452.83 256.72,421.07 			"/>
			<polygon style="fill:#407BFF;" points="263.74,421.07 272.74,452.83 286.82,452.83 275.28,421.07 			"/>
			<polygon style="fill:#407BFF;" points="283.2,421.07 301.72,452.83 317.7,452.83 293.63,421.07 			"/>
			<polygon style="fill:#407BFF;" points="301.99,421.07 332.68,452.83 351.79,452.83 313.44,421.07 			"/>
			<polygon style="fill:#407BFF;" points="236.26,421.07 227.26,452.83 213.18,452.83 224.72,421.07 			"/>
			<polygon style="fill:#407BFF;" points="216.8,421.07 198.28,452.83 182.3,452.83 206.37,421.07 			"/>
			<polygon style="fill:#407BFF;" points="198.01,421.07 167.32,452.83 148.21,452.83 186.56,421.07 			"/>
			<polygon style="opacity:0.4;fill:#FFFFFF;" points="244.1,421.07 237.84,452.83 258.85,452.83 256.72,421.07 			"/>
			<polygon style="opacity:0.4;fill:#FFFFFF;" points="263.74,421.07 272.74,452.83 286.82,452.83 275.28,421.07 			"/>
			<polygon style="opacity:0.4;fill:#FFFFFF;" points="283.2,421.07 301.72,452.83 317.7,452.83 293.63,421.07 			"/>
			<polygon style="opacity:0.4;fill:#FFFFFF;" points="301.99,421.07 332.68,452.83 351.79,452.83 313.44,421.07 			"/>
			<polygon style="opacity:0.4;fill:#FFFFFF;" points="236.26,421.07 227.26,452.83 213.18,452.83 224.72,421.07 			"/>
			<polygon style="opacity:0.4;fill:#FFFFFF;" points="216.8,421.07 198.28,452.83 182.3,452.83 206.37,421.07 			"/>
			<polygon style="opacity:0.4;fill:#FFFFFF;" points="198.01,421.07 167.32,452.83 148.21,452.83 186.56,421.07 			"/>
		</g>
		<g>
			<g>
				<g>
					<path style="fill:#407BFF;" d="M100.66,409.11c7.33-0.26,14.49-3.73,19.24-9.33c4.75-5.59,7.02-13.22,6.09-20.5
						c-0.66-5.21-2.84-10.08-4.38-15.1c-2.92-9.5-3.84-20.2-10.52-27.55c-4.1-4.51-10.15-7.19-16.25-7.19
						c-6.1,0-12.15,2.66-16.26,7.17c-4.33,4.75-6.38,11.17-7.27,17.53c-0.89,6.36-0.76,12.82-1.35,19.22
						c-0.5,5.31-1.5,10.61-1.29,15.94c0.21,5.33,1.82,10.88,5.73,14.51c1.93,1.79,4.3,3.02,6.66,4.19c2.36,1.17,4.79,2.31,7.4,2.66
						c2.61,0.35,5.47-0.21,7.35-2.05C96.98,409.04,99.42,409.16,100.66,409.11z"/>
					<path style="opacity:0.7;fill:#FFFFFF;" d="M100.66,409.11c7.33-0.26,14.49-3.73,19.24-9.33c4.75-5.59,7.02-13.22,6.09-20.5
						c-0.66-5.21-2.84-10.08-4.38-15.1c-2.92-9.5-3.84-20.2-10.52-27.55c-4.1-4.51-10.15-7.19-16.25-7.19
						c-6.1,0-12.15,2.66-16.26,7.17c-4.33,4.75-6.38,11.17-7.27,17.53c-0.89,6.36-0.76,12.82-1.35,19.22
						c-0.5,5.31-1.5,10.61-1.29,15.94c0.21,5.33,1.82,10.88,5.73,14.51c1.93,1.79,4.3,3.02,6.66,4.19c2.36,1.17,4.79,2.31,7.4,2.66
						c2.61,0.35,5.47-0.21,7.35-2.05C96.98,409.04,99.42,409.16,100.66,409.11z"/>
				</g>
				<g>
					<path style="fill:#407BFF;" d="M88.43,428.5v-1.32l2.21-1.88c0,0,2.65-27.03,3.09-34.81c0.44-7.78,0.99-20.14-1.88-29.08
						c0,0,3.75,8.38,5.41,19.03c0,0,3.42-12.3,9.49-20.14c0,0-7.39,18.9-6.4,36.49c0.99,17.59,3.75,29.73,3.75,29.73l1.32,0.88
						l0.11,1.1H88.43z"/>
					<path style="fill:#407BFF;" d="M95.18,385.12c0,0-1.91-8.52-7.09-12.75c0,0,4.33,5.96,5.75,16.09
						c1.42,10.13,2.93,3.67,2.93,3.67L95.18,385.12z"/>
					<path style="fill:#407BFF;" d="M92.92,408.17c0,0-0.7-3.08-3.86-5.01c0,0,1.98,1.92,2.92,8.07c0.94,6.15,3.23,2.73,3.23,2.73
						l0.18-3.38L92.92,408.17z"/>
					<path style="opacity:0.2;" d="M91.98,411.23c-0.94-6.15-2.92-8.07-2.92-8.07c1.8,1.1,2.8,2.57,3.33,3.63
						c0.6-6.55,1.16-13.08,1.34-16.31c0.04-0.64,0.07-1.32,0.11-2.02c-1.42-10.12-5.75-16.08-5.75-16.08
						c3.01,2.46,4.92,6.36,5.98,9.2c0.09-6.66-0.3-14.19-2.22-20.18c0,0,3.75,8.38,5.41,19.03c0,0,3.42-12.3,9.49-20.14
						c0,0-7.39,18.9-6.4,36.49c0.99,17.59,3.75,29.73,3.75,29.73l1.32,0.88l0.11,1.1H88.43v-1.32l2.21-1.88
						C90.64,425.3,91.27,418.78,91.98,411.23z"/>
				</g>
			</g>
			<g>
				<g>
					<path style="fill:#407BFF;" d="M395.22,413.39c-8.28-0.3-16.36-4.22-21.72-10.53c-5.36-6.31-7.92-14.92-6.88-23.14
						c0.75-5.88,3.21-11.38,4.95-17.04c3.29-10.72,4.33-22.81,11.88-31.11c4.63-5.09,11.46-8.11,18.34-8.12
						c6.88-0.01,13.71,3.01,18.35,8.09c4.89,5.36,7.2,12.61,8.21,19.79c1.01,7.18,0.85,14.48,1.53,21.7c0.56,6,1.7,11.98,1.46,18
						c-0.24,6.02-2.06,12.28-6.47,16.38c-2.18,2.02-4.86,3.41-7.52,4.73c-2.67,1.32-5.41,2.61-8.36,3c-2.95,0.39-6.18-0.23-8.3-2.32
						C399.37,413.31,396.61,413.44,395.22,413.39z"/>
					<path style="opacity:0.7;fill:#FFFFFF;" d="M395.22,413.39c-8.28-0.3-16.36-4.22-21.72-10.53c-5.36-6.31-7.92-14.92-6.88-23.14
						c0.75-5.88,3.21-11.38,4.95-17.04c3.29-10.72,4.33-22.81,11.88-31.11c4.63-5.09,11.46-8.11,18.34-8.12
						c6.88-0.01,13.71,3.01,18.35,8.09c4.89,5.36,7.2,12.61,8.21,19.79c1.01,7.18,0.85,14.48,1.53,21.7c0.56,6,1.7,11.98,1.46,18
						c-0.24,6.02-2.06,12.28-6.47,16.38c-2.18,2.02-4.86,3.41-7.52,4.73c-2.67,1.32-5.41,2.61-8.36,3c-2.95,0.39-6.18-0.23-8.3-2.32
						C399.37,413.31,396.61,413.44,395.22,413.39z"/>
				</g>
				<g>
					<path style="fill:#407BFF;" d="M409.02,435.27v-1.49l-2.49-2.12c0,0-2.99-30.51-3.49-39.3c-0.5-8.79-1.12-22.74,2.12-32.83
						c0,0-4.24,9.46-6.1,21.48c0,0-3.86-13.89-10.71-22.73c0,0,8.35,21.34,7.23,41.19c-1.12,19.85-4.24,33.56-4.24,33.56l-1.49,1
						l-0.12,1.25H409.02z"/>
					<path style="fill:#407BFF;" d="M401.4,386.31c0,0,2.16-9.62,8-14.39c0,0-4.89,6.73-6.49,18.16c-1.6,11.43-3.31,4.15-3.31,4.15
						L401.4,386.31z"/>
					<path style="fill:#407BFF;" d="M403.95,412.33c0,0,0.79-3.48,4.36-5.66c0,0-2.23,2.17-3.3,9.11c-1.06,6.94-3.64,3.08-3.64,3.08
						l-0.2-3.82L403.95,412.33z"/>
					<path style="opacity:0.2;" d="M405.02,415.78c1.06-6.94,3.3-9.11,3.3-9.11c-2.03,1.24-3.16,2.9-3.76,4.1
						c-0.67-7.39-1.31-14.77-1.51-18.41c-0.04-0.72-0.08-1.5-0.12-2.29c1.6-11.43,6.49-18.15,6.49-18.15
						c-3.4,2.77-5.55,7.18-6.76,10.39c-0.1-7.52,0.33-16.01,2.51-22.78c0,0-4.24,9.46-6.1,21.48c0,0-3.86-13.89-10.71-22.73
						c0,0,8.35,21.34,7.23,41.19c-1.12,19.85-4.24,33.56-4.24,33.56l-1.49,1l-0.12,1.25h19.31v-1.49l-2.49-2.12
						C406.53,431.66,405.81,424.31,405.02,415.78z"/>
				</g>
			</g>
		</g>
	</g>
</g>
</svg>
